<?xml version="1.0" standalone="no"?>
<!DOCTYPE svg PUBLIC "-//W3C//DTD SVG 1.1//EN" "http://www.w3.org/Graphics/SVG/1.1/DTD/svg11.dtd" >
<svg xmlns="http://www.w3.org/2000/svg">
<metadata>
Created by FontForge 20120731 at Wed Apr 19 00:39:47 2017
 By admin
</metadata>
<defs>
<font id="iconfont" horiz-adv-x="1024" >
  <font-face 
    font-family="iconfont"
    font-weight="500"
    font-stretch="normal"
    units-per-em="1024"
    panose-1="2 0 6 3 0 0 0 0 0 0"
    ascent="896"
    descent="-128"
    x-height="792"
    bbox="-0.892857 -212 1024 896"
    underline-thickness="0"
    underline-position="0"
    unicode-range="U+0078-E721"
  />
<missing-glyph 
 />
    <glyph glyph-name=".notdef" 
 />
    <glyph glyph-name=".notdef" 
 />
    <glyph glyph-name=".null" horiz-adv-x="0" 
 />
    <glyph glyph-name="nonmarkingreturn" horiz-adv-x="341" 
 />
    <glyph glyph-name="x" unicode="x" horiz-adv-x="1001" 
d="M281 543q-27 -1 -53 -1h-83q-18 0 -36.5 -6t-32.5 -18.5t-23 -32t-9 -45.5v-76h912v41q0 16 -0.5 30t-0.5 18q0 13 -5 29t-17 29.5t-31.5 22.5t-49.5 9h-133v-97h-438v97zM955 310v-52q0 -23 0.5 -52t0.5 -58t-10.5 -47.5t-26 -30t-33 -16t-31.5 -4.5q-14 -1 -29.5 -0.5
t-29.5 0.5h-32l-45 128h-439l-44 -128h-29h-34q-20 0 -45 1q-25 0 -41 9.5t-25.5 23t-13.5 29.5t-4 30v167h911zM163 247q-12 0 -21 -8.5t-9 -21.5t9 -21.5t21 -8.5q13 0 22 8.5t9 21.5t-9 21.5t-22 8.5zM316 123q-8 -26 -14 -48q-5 -19 -10.5 -37t-7.5 -25t-3 -15t1 -14.5
t9.5 -10.5t21.5 -4h37h67h81h80h64h36q23 0 34 12t2 38q-5 13 -9.5 30.5t-9.5 34.5q-5 19 -11 39h-368zM336 498v228q0 11 2.5 23t10 21.5t20.5 15.5t34 6h188q31 0 51.5 -14.5t20.5 -52.5v-227h-327z" />
    <glyph glyph-name="shezhi" unicode="&#xe602;" horiz-adv-x="1000" 
d="M607 -122h-186v9q0 64 -44.5 109.5t-107.5 45.5q-42 0 -77 -21l-8 -5l-92 162l7 5q55 32 71.5 94t-14.5 117q-21 36 -57 57l-7 5l92 162l8 -5q36 -21 77 -21q40 0 75 20q37 21 57 57q21 37 21 78v9h185v-8q0 -65 45 -110.5t108 -45.5q41 0 77 21l7 4l93 -162l-8 -4
q-55 -32 -71.5 -94.5t15.5 -117.5q20 -36 56 -57l7 -4l-92 -162l-8 4q-36 21 -77 21q-40 0 -75 -20q-36 -21 -57 -57t-20 -77v-9zM439 -104h150q2 41 22 77q24 41 64 64q39 22 84 22q41 0 78 -19l75 131q-34 23 -55 59q-34 60 -17.5 127t73.5 105l-75 131q-37 -19 -78 -19
q-68 0 -117.5 48t-53.5 117h-149q-2 -42 -23 -79q-23 -40 -64 -63q-39 -23 -84 -23q-41 0 -78 19l-75 -131q35 -23 55 -59q36 -62 17 -131q-17 -64 -72 -100l75 -131q36 18 78 18q70 0 120 -50q46 -47 50 -113zM514 134q-75 0 -128 53.5t-53 129.5t53 129.5t128 53.5
t128.5 -53.5t53.5 -129.5t-53.5 -129.5t-128.5 -53.5zM514.5 482q-67.5 0 -115.5 -48.5t-48 -116.5t48 -116.5t115.5 -48.5t115.5 48.5t48 116.5t-48 116.5t-115.5 48.5z" />
    <glyph glyph-name="search" unicode="&#xe677;" 
d="M913 82l-202 202q0 1 -7 6q54 83 54 182q0 91 -44.5 168t-121.5 121.5t-168 44.5t-167.5 -44.5t-121.5 -121.5t-45 -168t45 -168t121.5 -121.5t167.5 -44.5q99 0 182 54q4 -6 6 -7l202 -202q21 -21 50 -21t49.5 20.5t20.5 50t-21 49.5zM424.5 243q-94.5 0 -161.5 67
t-67 161.5t67 161.5t161.5 67t161.5 -67t67 -161.5t-67 -161.5t-161.5 -67z" />
    <glyph glyph-name="loantips" unicode="&#xe601;" 
d="M932 -29l-30 -31q-7 -6 -15.5 -6t-15.5 6l-66 66q-42 -23 -92 -16.5t-86 42.5q-44 44 -44 106.5t44 107t106.5 44.5t107.5 -44q35 -36 42 -86t-17 -93l66 -66q7 -6 7 -15t-7 -15zM795 200q-25 25 -61 25t-61.5 -25t-25.5 -61t25.5 -61.5t61.5 -25.5t61 25.5t25 61.5
t-25 61zM280 265h277q-28 -40 -35 -88h-242q-9 0 -15.5 6.5t-6.5 15.5v44q0 9 6.5 15.5t15.5 6.5zM674 527h-241v88h241q9 0 15 -6.5t6 -15.5v-44q0 -9 -6 -15.5t-15 -6.5zM695 374q0 -9 -6 -15.5t-15 -6.5h-394q-9 0 -15.5 6.5t-6.5 15.5v44q0 9 6.5 15.5t15.5 6.5h394
q9 0 15 -6.5t6 -15.5v-44zM783 746h-438v-175h-175v-525h374q14 -28 36 -50q23 -23 52 -38h-505q-19 0 -31.5 13t-12.5 31v610l216 222h528q18 0 31 -13t13 -31v-493q-39 36 -88 49v400z" />
    <glyph glyph-name="company" unicode="&#xe634;" 
d="M871 -17v771l-126 106l-418 -151v-38l380 124v-868h253v56h-89zM190 221l200 38v98l-200 -51v-85zM190 -74h200v103l-200 -14v-89zM190 74l200 18v98l-200 -32v-84zM190 370l200 53v102l-200 -65v-90zM611 623l-113 67l-424 -148v-618h56v588l317 101v-686h164v696z" />
    <glyph glyph-name="xiaoxi" unicode="&#xe64a;" 
d="M512 -84h-85l-235 -128v235q-90 63 -141 150.5t-51 190.5q0 91 40.5 174t109 143t163.5 95.5t199 35.5t199 -35.5t163.5 -95.5t109 -143t40.5 -174t-40.5 -174t-109 -143t-163.5 -95.5t-199 -35.5v0zM512 748q-122 0 -225 -51.5t-163 -140t-60 -192.5q0 -96 52 -181.5
t140 -138.5v-142l171 78h85q122 0 225 51.5t163 140t60 192.5t-60 192.5t-163 140t-225 51.5v0zM768 300q-27 0 -45.5 19t-18.5 45.5t18.5 45t45.5 18.5t45.5 -18.5t18.5 -45t-18.5 -45.5t-45.5 -19v0zM512 300q-27 0 -45.5 19t-18.5 45.5t18.5 45t45.5 18.5t45.5 -18.5
t18.5 -45t-18.5 -45.5t-45.5 -19v0zM256 300q-27 0 -45.5 19t-18.5 45.5t18.5 45t45.5 18.5t45.5 -18.5t18.5 -45.5t-18.5 -45.5t-45.5 -18.5v0z" />
    <glyph glyph-name="huilv" unicode="&#xe61f;" 
d="M512 842q89 0 169.5 -35t139 -93t93 -139t34.5 -169.5t-34.5 -169.5t-93 -139.5t-139 -93t-169.5 -34.5t-169.5 34.5t-139 93t-93 139.5t-34.5 169.5t34.5 169.5t93 139t139 93t169.5 35zM512 885q-98 0 -186.5 -38t-153 -102t-102.5 -153t-38 -186.5t38 -186.5
t102.5 -153.5t153 -102.5t186.5 -38t186.5 38t153 102.5t102.5 153.5t38 186.5t-38 186.5t-102.5 153t-153 102t-186.5 38v0zM441 488q0 -26 17 -45.5t42 -23.5v139q-25 -5 -42 -24.5t-17 -45.5zM524 253q25 4 42 23.5t17 45.5t-17 45.5t-42 24.5v-139zM512 678
q-113 0 -192.5 -80t-79.5 -192.5t79.5 -192.5t192.5 -80t192.5 80t79.5 192.5t-79.5 192.5t-192.5 80zM607 322q0 -39 -28 -67t-67 -28t-67 28t-28 67q0 5 3.5 9t8.5 4t8.5 -4t3.5 -9q0 -26 17 -45.5t42 -23.5v141q-36 5 -60 31.5t-24 62.5q0 40 28 68t67.5 28t67.5 -28
t28 -68q0 -5 -3.5 -8.5t-8.5 -3.5t-8.5 3.5t-3.5 8.5q0 26 -17 45.5t-42 24.5v-142q36 -4 59.5 -31t23.5 -63z" />
    <glyph glyph-name="service" unicode="&#xe646;" 
d="M510 -48q-10 5 -31.5 13.5t-38 16t-30.5 14.5q-125 69 -177 192q-6 16 -11 35q-3 10 -13 10q-50 1 -61 45q-2 6 -2 21v59q1 27 17.5 44t43.5 17q13 0 18 13q58 141 206 178q183 46 315 -92q36 -37 54 -89q4 -11 15 -10q29 1 47 -18t17 -46q-2 -30 0 -57q1 -27 -16 -46.5
t-48 -18.5q-9 0 -11 -9q-38 -134 -167 -216q-58 -37 -120 -54l-3 -2h-4v0zM255 344q3 -49 3 -51q7 -81 53 -146q68 -97 194 -141q7 -2 15 0q58 18 109 55q3 2 50 41l-0.5 1l-0.5 1l-10 1h-98q-10 0 -15 -8q-6 -10 -16 -16q-14 -9 -31 -5t-27 18q-9 15 -6.5 32t16.5 28
q14 10 31 8t29 -15q6 -7 13 -7q67 -1 138 0q8 0 12 7q32 44 46 103q0 2 7 42q-68 -4 -114 9q-78 22 -93 85q-13 -12 -27.5 -20t-33.5 -14.5t-29.5 -9.5t-36.5 -9t-32 -7q38 43 24 81q-14 -11 -29 -19.5t-36.5 -16t-31 -10t-39 -9.5t-34.5 -8zM527 747q55 -6 58 -6
q89 -11 166 -56q81 -47 130 -122q46 -71 54 -152q0 -1 0.5 -4t0.5 -5q0 -19 15 -28q16 -10 16 -34v-12.5v-12.5q0 -21 -12 -35t-33 -16h-33v13q-2 116 -3 125q-4 71 -48 136q-80 119 -233 150q-142 29 -268 -26q-133 -58 -182 -186q-19 -49 -19 -104v-96v-12q-15 -2 -31.5 0
t-27.5 11q-5 3 -8 7q-13 14 -12 44.5t14 44.5v1q6 2 9 5t5 8.5t2.5 7.5t1 10t0.5 9q9 82 55 151q91 137 267 173q3 1 75 9q1 0 12 2h29z" />
    <glyph glyph-name="inmoney" unicode="&#xe649;" 
d="M733 510q-13 12 -43.5 34.5t-53.5 41.5t-26 30q-1 3 -2 7q12 1 12 10q0 5 -4 8t-10 3h-1q1 9 17.5 39t28.5 71q-26 7 -42.5 10.5t-30.5 0.5t-21.5 -6.5t-25.5 -14t-32 -17.5q-16 -4 -29 3.5t-20 17t-22.5 13t-36.5 -7.5q17 -36 39 -67.5t25 -41.5q-13 -2 -13 -11t13 -10
q-1 -3 -1 -4q-3 -11 -26.5 -30t-55.5 -42.5t-46 -36.5q-17 -17 -37 -51.5t-37.5 -80t-29.5 -95.5t-10.5 -98.5t15.5 -87.5t52.5 -64t97.5 -27l153 -5q17 0 152 5q60 2 98 27t52.5 64t15.5 87.5t-11 98.5t-29.5 95.5t-37.5 80t-37 51.5zM631 318v-38h-84v-46h82v-38h-82v-89
h-35v89h-81v38h81v46h-81v38h57l-90 128h46l87 -120l84 117h44l-87 -125h59z" />
    <glyph glyph-name="details" unicode="&#xe608;" 
d="M652 -42q-104 0 -178 73.5t-74 178t74 178t178 73.5t177.5 -73.5t73.5 -178t-73.5 -178t-177.5 -73.5v0zM652 349q-58 0 -99 -40.5t-41 -98.5t41 -99t99 -41t98.5 41t40.5 99t-40.5 98.5t-98.5 40.5v0zM680 126h-56v56h-56v56h56v56h56v-56h56v-56h-56v-56zM791 556v-74
q-20 11 -25 13q25 28 25 61v0zM697 513q-31 4 -45 4q-96 0 -175 -55q-3 0 -10 -0.5t-11 -0.5q-91 0 -168 22.5t-122 61t-45 84.5v56q0 45 45 84t122 61.5t168 22.5t168.5 -22.5t122 -61.5t44.5 -84v-56q0 -67 -94 -116v0zM418 407q-40 -47 -58 -106q-105 16 -172 60t-67 100
v95q0 -63 84 -103t213 -46v0zM348 245q-4 -31 -4 -35q0 -35 11 -76q-103 17 -168.5 60.5t-65.5 99.5v94q0 -54 62.5 -91.5t164.5 -51.5v0zM377 74q35 -71 98 -115q-3 0 -9 -0.5t-10 -0.5q-91 0 -168 22.5t-122 61t-45 84.5v94q0 -57 71 -96t185 -50v0z" />
    <glyph glyph-name="jiaoyi" unicode="&#xe62e;" 
d="M340 189q18 18 18 44.5t-18.5 45.5t-45 19t-45.5 -19q19 19 19 45t-18.5 45t-45 19t-45.5 -19l-48 -48q-18 -18 -18 -44.5t18.5 -45.5t45 -19t45.5 19q-19 -19 -19 -45t18.5 -45t45 -19t45.5 19zM430 98q19 19 19 45.5t-19 45t-45.5 18.5t-44.5 -18l-48 -48
q-19 -19 -19 -45.5t19 -45t45 -18.5t45 19q-19 -19 -19 -45.5t19 -45t45.5 -18.5t44.5 18l48 48q19 19 19 45.5t-19 45t-45 18.5t-45 -19zM582 81q-7 29 -28 51q-5 4 -10 9l-11 -11zM948 797q-59 59 -141.5 71.5t-153.5 -23.5q21 -8 38 -24q30 -31 30 -74t-30 -73l-32 -32
l193 -193l55 -54l41 41q75 74 75 180t-75 181zM818 415l-177 178l-16 15l-122 -122q-30 -30 -73 -30t-73.5 30.5t-30.5 73.5t30 74l122 121l-41 41q-75 75 -180.5 75t-180.5 -74.5t-75 -180.5t75 -181l41 -41l9 9q32 32 78 32t79 -32q25 -25 31 -60q34 -6 59 -31t31 -59
q34 -6 59 -31t31 -59q28 -5 50 -22l9 9l95 -94q16 -15 38 -15t37.5 15.5t15.5 37.5t-16 37l-95 94l20 20l95 -94q16 -15 38 -15t37.5 15.5t15.5 37.5t-16 37l-95 94l20 20l95 -93q16 -16 38 -16t37.5 15.5t15.5 38t-16 37.5zM554 -25l-8 -8l6 -6q16 -15 38 -15t38 15.5
t16 37.5t-16 38l-46 44q8 -28 0.5 -56.5t-28.5 -49.5zM389.5 520q16.5 -17 40 -17t40.5 17l187 187q17 17 17 40.5t-16.5 40t-40 16.5t-40.5 -17l-187 -187q-17 -16 -17 -39.5t16.5 -40.5z" />
    <glyph glyph-name="member" unicode="&#xe628;" 
d="M140 556.5q0 -15.5 -11 -26.5t-26.5 -11t-27 11t-11.5 26.5t11.5 26.5t27 11t26.5 -11t11 -26.5zM551 673.5q0 -15.5 -11 -26.5t-26.5 -11t-27 11t-11.5 26.5t11.5 27t27 11.5t26.5 -11.5t11 -27zM958 556.5q0 -15.5 -11 -26.5t-26.5 -11t-26.5 11t-11 26.5t11 26.5
t26.5 11t26.5 -11t11 -26.5zM140 508l53 -336h623l67 336l-187 -119l-183 220l-185 -210zM819 91q0 -11 -7.5 -18.5t-18.5 -7.5h-574q-11 0 -18.5 7.5t-7.5 18.5v0q0 10 7.5 18t18.5 8h574q11 0 18.5 -8t7.5 -18v0z" />
    <glyph glyph-name="xinshoujiaocheng" unicode="&#xe6bb;" 
d="M869 321v97h65v-97h-65zM869 546h65v-97h-65v97zM869 676h65v-97h-65v97zM771 -38h-583q-27 0 -46 19t-19 46h16q20 0 34.5 14.5t14.5 34.5t-14.5 34.5t-34.5 14.5h-16v32h16q20 0 34.5 14.5t14.5 34.5t-14.5 34t-34.5 14h-16v33h16q20 0 34.5 14t14.5 34.5t-14.5 34.5
t-34.5 14h-16v32h16q20 0 34.5 14.5t14.5 34.5t-14.5 34.5t-34.5 14.5h-16v32h16q20 0 34.5 14.5t14.5 34.5t-14.5 34t-34.5 14h-16v98q0 27 19 46t46 19h583q37 0 56 -33h-639q-14 0 -23.5 -9.5t-9.5 -23t9.5 -23t23.5 -9.5h648v-681q0 -27 -19 -46t-46 -19v0v0zM496 593
q-30 0 -50.5 -27.5t-20.5 -66t20.5 -66t50 -27.5t50.5 27.5t21 66t-21 66t-50 27.5v0zM609 362q-8 5 -25 10t-30 7l-13 2l-3.5 -3.5t-9 -8.5t-11.5 -10.5t-12 -9t-10 -3.5t-10.5 3.5t-12.5 9t-11.5 10.5t-8.5 9l-4 3l-5 -1t-13.5 -2.5t-17.5 -4t-18 -5.5t-14 -6
q-7 -5 -13.5 -23.5t-8.5 -34.5l-3 -16h280l-0.5 3.5t-1.5 9t-2 12.5t-3 14.5t-4.5 14t-6.5 12t-8 8.5v0zM155 595q0 -7 -4.5 -11.5t-11.5 -4.5h-32q-7 0 -12 4.5t-5 11t5 11.5t12 5h32q7 0 11.5 -5t4.5 -11v0zM107 481h32q7 0 11.5 -4.5t4.5 -11.5t-4.5 -11.5t-11.5 -4.5
h-32q-7 0 -12 4.5t-5 11.5t5 11.5t12 4.5v0zM107 352h32q7 0 11.5 -5t4.5 -11.5t-4.5 -11.5t-11.5 -5h-32q-7 0 -12 5t-5 11.5t5 11.5t12 5v0zM107 222h32q7 0 11.5 -5t4.5 -11.5t-4.5 -11.5t-11.5 -5h-32q-7 0 -12 5t-5 11.5t5 11.5t12 5v0zM107 92h32q7 0 11.5 -4.5
t4.5 -11.5t-4.5 -11.5t-11.5 -4.5h-32q-7 0 -12 4.5t-5 11.5t5 11.5t12 4.5v0z" />
    <glyph glyph-name="partner" unicode="&#xe6b7;" 
d="M12 402l57 -29q3 -2 8 -3.5t15.5 1t16.5 15.5l142 296l2.5 7.5t0 14.5t-11.5 15l-62 31q-2 1 -6 2t-12.5 -1.5t-13.5 -12.5q-1 -10 -146 -302q-9 -24 10 -34v0v0zM946 372l59 27q1 0 2.5 1t6 4.5t6.5 7.5t3 11t-4 15l-146 295q0 1 -1 2.5t-4 5.5t-7 6t-10 4t-12 -2
l-63 -30q-2 -1 -4.5 -3.5t-7 -10.5t1.5 -19q3 -3 40 -78t72 -149l36 -74q0 -1 1 -2t4.5 -5t7 -5.5t9 -2.5t10.5 2v0v0zM151 373l19 41l68 -86q5 2 12.5 2.5t23.5 -3.5t23 -16q2 -2 4 -5.5t5 -16t-1 -26.5q9 -7 10 -11q30 7 49 -14q2 -2 4.5 -5t6.5 -13t3 -22q12 -5 15 -12
q30 7 44 -10l5 -5t7.5 -12.5t4.5 -18.5l27 -20q26 -2 30 -22l25 -19q2 0 4.5 -1t9.5 -1.5t12.5 1t10 8t5.5 17.5l-93 71q-1 1 -1.5 3t-0.5 7t2 8t7.5 5.5t15.5 0.5l139 -97q22 -10 36 12q13 18 -6 38l-147 107q-1 1 -1.5 3t-1 7t1 9t7 6.5t14.5 1.5l175 -124q25 -9 36 9
q14 19 0 38l-194 141q0 1 -0.5 3t-1 8t2 9t8 6t16.5 -1l199 -142q4 -1 9 -2t17 2.5t18 14.5q2 3 4 8t1 17.5t-11 22.5l-282 246q-2 1 -5.5 2.5t-14.5 3t-21 0t-22 -10t-21 -22.5q0 -4 -1 -9.5t-7 -21t-15.5 -28.5t-29.5 -25.5t-47 -16.5q-1 0 -3.5 0.5t-9 1.5t-11.5 3
t-12 5.5t-10 8.5t-5.5 12t1.5 16q3 3 6 8.5t8 26t4 43.5q2 38 28 71h-101l22 46h153q7 4 19 10t41.5 15t50.5 7q62 -3 78 -13q10 -2 24.5 -6.5t46.5 -10t48 -3.5l137 -284l-21 -50q1 -1 3.5 -4t8 -13t8 -20t0.5 -25t-10 -29q-16 -32 -64 -35q5 -33 -19 -52q-2 -3 -6 -7
t-20 -9t-35 -2v-8.5t-6.5 -19t-19.5 -22.5q-4 -3 -11 -7t-29.5 -3t-46.5 17q-1 -4 -3.5 -9.5t-15.5 -17t-31 -14.5q-31 -4 -49 13q-1 -3 -3.5 -6.5t-10.5 -12.5t-16.5 -13.5t-21.5 -4t-26 9.5q-1 1 -2.5 3t-5.5 8t-6 12.5t-1 16t7 18.5q-2 -2 -5 -6t-12 -12t-18.5 -12
t-23.5 -1t-27 16l-2.5 2.5t-4.5 7t-4 12t1 16.5t9 22l-4.5 -4.5t-11 -7.5t-17.5 -7t-21 1t-24 14l-2.5 2.5t-5 8t-5.5 13t0 18t8 22.5q-2 -1 -4.5 -4t-11.5 -8.5t-18 -7t-22 2t-26 15.5q-2 2 -4 6t-6 18t3 31l42 58zM151 373z" />
    <glyph glyph-name="yunkey" unicode="&#xe67f;" 
d="M830 600q-16 83 -80.5 137.5t-146.5 54.5q-67 0 -124 -38t-86 -101q-29 12 -61 12q-65 0 -114 -46t-56 -113q-65 -6 -110 -57t-45 -120t45.5 -120t111.5 -57v40q-50 6 -84 45t-34 92q0 58 39 98.5t95 40.5v0l20 -1v22q1 57 39.5 97t92.5 40q33 0 62 -16l21 -12l7 22
q21 60 71 96t110 36q72 0 126.5 -49.5t64.5 -123.5l2 -16l16 -1q70 -5 118 -58.5t48 -126.5q0 -77 -52 -131.5t-126 -54.5h-10v-39h10q90 0 153.5 66t63.5 159q0 84 -53.5 147.5t-133.5 75.5zM703 132h-438q-7 0 -11.5 -5t-4.5 -11v-102q0 -6 4.5 -11t11.5 -5h438
q7 0 11.5 5t4.5 11v102q0 6 -4.5 11t-11.5 5zM320 30h-26v70h26v-70zM379 30h-26v70h26v-70zM637 33q-13 0 -22.5 9.5t-9.5 22.5t9.5 22.5t22.5 9.5t22.5 -9.5t9.5 -22.5t-9.5 -22.5t-22.5 -9.5zM703 280h-438q-7 0 -11.5 -4.5t-4.5 -11.5v-102q0 -6 4.5 -10.5t11.5 -4.5
h438q7 0 11.5 4.5t4.5 10.5v102q0 7 -4.5 11.5t-11.5 4.5zM320 179h-26v69h26v-69zM379 179h-26v69h26v-69zM637 181q-13 0 -22.5 9.5t-9.5 23t9.5 23t22.5 9.5t22.5 -9.5t9.5 -23t-9.5 -23t-22.5 -9.5zM703 428h-438q-7 0 -11.5 -4.5t-4.5 -10.5v-102q0 -7 4.5 -11.5
t11.5 -4.5h438q7 0 11.5 4.5t4.5 11.5v102q0 6 -4.5 10.5t-11.5 4.5zM320 327h-26v70h26v-70zM379 327h-26v70h26v-70zM637 330q-13 0 -22.5 9t-9.5 22.5t9.5 23t22.5 9.5t22.5 -9.5t9.5 -23t-9.5 -22.5t-22.5 -9z" />
    <glyph glyph-name="news" unicode="&#xe622;" 
d="M741 145q-30 34 -90 58.5t-124.5 37t-125 21t-100.5 16.5t-42 18v276q2 15 35 24.5t85.5 19t110.5 22t121 40.5t106 68q105 96 166 -33q48 -102 51 -276v-13q0 -141 -48 -240q-46 -94 -104 -71q-21 8 -41 32v0zM90 375v140q0 23 16.5 39t39.5 16h57v-251h-57
q-23 0 -39.5 16.5t-16.5 39.5v0zM326 218q17 -4 34.5 -9t25.5 -8l9 -3q13 -35 47 -83q20 -29 31.5 -46.5t22.5 -40.5t6 -34.5t-26 -11.5h-27h-24q-35 0 -60.5 25t-62.5 89q-40 67 -40 136q24 -6 64 -14v0z" />
    <glyph glyph-name="read" unicode="&#xe721;" horiz-adv-x="1025" 
d="M962 16v642q0 12 -2.5 20.5t-4.5 10.5l-2 3h-23q-6 0 -11.5 6t-8.5 13l-2 6v41q0 12 -1.5 21t-3 13.5t-3 7.5t-2.5 4l-2 1q-10 9 -49.5 15.5t-74.5 9.5l-35 2q-30 5 -63.5 -3.5t-59.5 -25.5t-47.5 -34.5t-33.5 -30.5l-11 -13h-14q-16 25 -42.5 45t-51 31t-49 18t-37 9
t-15.5 2q-50 4 -85.5 1t-57 -10.5t-33.5 -15.5t-16 -14l-5 -6v-61q0 -13 -5.5 -19t-10.5 -7t-14 -1q-4 0 -8 -3t-6.5 -7l-5 -8t-3.5 -7l-1 -2v-164l1 -497l3 -7q0 -11 5 -17.5t10 -7.5l5 -1h368q2 -16 7.5 -26.5t10.5 -13.5l5 -2h80q5 0 9 4.5t5.5 10t2.5 13t1 10.5v4h369
q18 0 18 40zM500 377v-354q-6 -26 -23 -7q-78 78 -238 66l-37 -5q-15 -9 -26.5 -10.5t-17.5 3t-9.5 11.5t-4.5 11t-1 6v626q2 9 8 15t10 7l5 2q16 12 77 12q55 8 101.5 -4t73 -30t48 -44t26.5 -36.5t8 -16.5v0v-252zM881 98q0 -3 -0.5 -6.5t-4.5 -11t-9.5 -11.5t-17 -2.5
t-26.5 10.5q-8 2 -20.5 3.5t-49 2t-69 -4t-71.5 -20t-65 -42.5q-1 -1 -2.5 -2l-4.5 -3t-6 -2.5t-6 3t-5 11.5v606q3 6 8 17t26 37.5t47.5 44.5t73.5 29t102 1q61 -5 77 -14q18 0 23 -20v-626zM456 529q-2 -7 -8 -10.5t-13 -1.5q-79 39 -122 50q-19 5 -48.5 8t-49.5 4l-20 1
q-7 2 -10.5 8.5t-2.5 13.5v0q2 7 8.5 10.5t13.5 1.5q79 -4 121 -16q19 -5 48.5 -17t49.5 -21l21 -9q7 -2 10.5 -8.5t1.5 -13.5v0zM583 529q2 -7 8.5 -10.5t13.5 -1.5q79 39 121 50q19 5 48.5 8t49.5 4l20 1q7 2 11 8.5t2 13.5v0q-2 7 -8.5 10.5t-13.5 1.5q-79 -4 -121 -16
q-19 -5 -48.5 -17t-49.5 -21l-20 -9q-7 -2 -11 -8.5t-2 -13.5v0zM608 371q2 -7 8 -10.5t13 -2.5q79 39 122 51q18 5 48 8t50 4l20 1q7 2 10.5 8t1.5 13v0q-1 7 -7.5 11t-13.5 2q-79 -5 -121 -16q-19 -5 -48.5 -17t-50.5 -21l-20 -10q-7 -1 -10.5 -7.5t-1.5 -13.5v0zM603 202
q1 -7 7.5 -10.5t13.5 -1.5q79 39 121 50q19 5 48.5 8.5t50.5 3.5l20 1q7 2 10.5 8.5t1.5 13.5v0q-2 7 -8 10.5t-13 1.5q-79 -4 -122 -16q-19 -5 -48.5 -17t-49.5 -21l-20 -9q-7 -2 -10.5 -8.5t-1.5 -13.5v0zM435 371q-2 -7 -8.5 -10.5t-13.5 -2.5q-78 39 -121 51
q-19 5 -48.5 8t-49.5 4l-20 1q-7 2 -10.5 8t-2.5 13v0q2 7 8.5 11t13.5 2q79 -5 121 -16q19 -5 48.5 -17t49.5 -21l20 -10q7 -1 11 -7.5t2 -13.5v0zM456 202q-2 -7 -8 -10.5t-13 -1.5q-79 39 -122 50q-19 5 -48.5 8.5t-49.5 3.5l-20 1q-7 2 -10.5 8.5t-2.5 13.5v0
q2 7 8.5 10.5t13.5 1.5q79 -4 121 -16q19 -5 48.5 -17t49.5 -21l21 -9q7 -2 10.5 -8.5t1.5 -13.5v0z" />
    <glyph glyph-name="sure" unicode="&#xe626;" 
d="M812 277h52v-107h-52v107zM812 420h52v-107h-52v107zM864 512q-24 -29 -47 -59h47v59zM862 134h-52q0 -34 -23.5 -57.5t-57.5 -23.5v-53q55 0 94 39t39 95zM581 51h108v-52h-108v52zM689 688v45h-108v-53h99q7 7 9 8zM441 51h107v-52h-107v52zM441 733h107v-53h-107v53z
M298 51h107v-52h-107v52zM298 733h107v-53h-107v53zM178 134h-52q0 -56 39 -95t94 -39v53q-33 0 -57 23.5t-24 57.5zM259 680v53q-55 0 -94 -39t-39 -94h52q0 33 24 56.5t57 23.5zM126 560h52v-107h-52v107zM126 420h52v-107h-52v107zM126 277h52v-107h-52v107zM495 397
l-196 153l-87 -70l340 -344q49 127 180.5 315.5t288.5 332.5l-21 48q-87 -53 -169.5 -116.5t-147 -124t-108.5 -106.5t-80 -88z" />
    <glyph glyph-name="center" unicode="&#xe61e;" 
d="M639 322v0q-3 1 -6.5 3.5t-9 9t-8.5 15.5t-2 25t7 35v0q45 48 73.5 117.5t28.5 140.5q0 108 -60.5 168t-149.5 60t-149.5 -60t-60.5 -168q0 -71 29 -141t74 -117q7 -24 7 -39.5t-8.5 -26.5t-14 -15.5t-11.5 -6.5q-64 -23 -119.5 -53.5t-96.5 -71t-41 -77.5v-30
q0 -52 58 -103t149.5 -83t183.5 -32t183.5 32t149.5 83t58 103v30q0 38 -41.5 78.5t-98.5 71t-124 52.5zM512 32l-39 47l35 149h8l35 -149z" />
    <glyph glyph-name="vedio" unicode="&#xe637;" 
d="M78 741v-601h868v601h-868zM849 237h-674v407h674v-407v0zM262 52q0 -11 7 -18t17 -7h452q10 0 17 7t7 18v36h-500v-36v0zM474 533q-73 26 -144 33v-254q68 -8 144 -33v254zM584 602q-29 -19 -54 -55q34 31 78 51q-19 3 -24 4zM550 279q76 25 144 33v254q-71 -7 -144 -33
v-254zM656 583q-2 2 -7.5 5.5t-7.5 4.5q-50 -12 -97 -49q69 39 151 43zM388 593q-6 -4 -16 -10q59 -10 112 -39q-46 37 -96 49v0zM444 602q-11 -2 -24 -4q45 -20 78 -51q-24 36 -54 55zM485 279q27 -23 56 0v254q-28 -15 -56 0v-254v0z" />
    <glyph glyph-name="renmai" unicode="&#xe699;" 
d="M126 426q-1 -9 3.5 -16.5t13.5 -8.5q9 -2 16 3t9 13q16 77 62.5 140t114.5 99q8 5 10.5 13t-1.5 16t-12.5 10.5t-16.5 -1.5q-76 -41 -128.5 -111t-70.5 -157zM503 -50q80 0 152.5 32.5t127.5 92.5q6 6 5.5 15t-7 15t-15.5 5.5t-15 -7.5q-48 -52 -112.5 -81t-136.5 -29
q-69 0 -131.5 27t-110.5 76q-6 7 -15 7t-15.5 -6t-6.5 -15t6 -15q55 -56 125.5 -86.5t148.5 -30.5zM680 694q-7 4 -15.5 1.5t-12.5 -9.5q-4 -8 -1.5 -16.5t9.5 -12.5q69 -37 116 -101t62 -142q2 -9 9 -13.5t16 -3t14 8.5t3 16q-17 88 -69.5 159.5t-130.5 112.5zM606 725
q0 44 -30.5 75t-74 31t-74 -31t-30.5 -75t30.5 -75.5t74 -31.5t74 31.5t30.5 75.5zM439 725q0 27 18.5 45.5t44 18.5t43.5 -18.5t18 -45.5t-18 -45.5t-43.5 -18.5t-44 18.5t-18.5 45.5zM278 253q0 45 -31.5 77t-75.5 32t-75 -32t-31 -77t31 -77t75 -32t75.5 32t31.5 77z
M106 253q0 28 19 47.5t45.5 19.5t45 -19.5t18.5 -47t-18.5 -47t-45.5 -19.5q-26 0 -45 19.5t-19 46.5zM949 253q0 45 -31 77t-75 32t-75.5 -32t-31.5 -77t31.5 -77t75.5 -32t75 32t31 77zM778 253q0 28 19 47.5t45.5 19.5t45 -19.5t18.5 -47t-18.5 -47t-45 -19.5t-45.5 19.5
t-19 46.5z" />
    <glyph glyph-name="grzx" unicode="&#xe60b;" 
d="M453 58q-51 0 -107 37t-98 90.5t-69.5 114.5t-27.5 107v265q99 0 168.5 26t133.5 76q65 -50 134 -76t168 -26v-265v-11q17 -2 33 -6q1 9 1 16v295q-110 0 -187 28.5t-149 84.5q-71 -56 -148 -84.5t-188 -28.5v-295q0 -52 31 -119.5t77.5 -127t109 -100.5t118.5 -41
q42 0 87 23q-11 16 -19 33q-35 -15 -68 -16zM729 348q-75 0 -128 -53t-53 -128t53 -128t128 -53t128 53t53 128t-53 128t-128 53zM727 50q-7 -7 -17 -7t-17 7l-77 76q-7 7 -7 17t7 17t17 7t17 -7l60 -59l115 113q7 7 17.5 7t17.5 -6.5t7 -16.5t-7 -17zM686 400v225
q-80 0 -131.5 18t-101.5 57q-49 -39 -101 -57t-131 -18v-225q0 -50 31.5 -114.5t85.5 -113t107 -48.5q6 0 13 2t12 4t14 6t12 6v34q0 39 6.5 64.5t24.5 50.5h-131v29h28v158h29v-158h40v202h-86v29h179v-29h-64v-76h58v-28h-58v-98h26q25 30 59.5 50t56.5 25zM365 568
l26 -12q-23 -51 -78 -92l-9 29q42 33 61 75zM374 432v-152h-29v122q-15 -13 -30 -24l-8 29q46 34 69 81l25 -12q-11 -24 -27 -44z" />
    <glyph glyph-name="moneyout" unicode="&#xe650;" 
d="M833 640v0v0zM348 475h346v-70h-346v70zM887 475h-102v-133h-520v133h-144v-460h782v460h-16zM595 149q8 0 12.5 -5.5t4.5 -12.5q0 -8 -4.5 -13t-12.5 -5h-55v-31q-2 -25 -27 -25q-13 0 -20 6.5t-8 18.5v30h-56q-8 1 -12 7t-5 13q1 7 5 12t12 5h56v18l-56 1q-8 0 -12 5
t-5 13q1 7 5 11.5t12 5.5h42l-39 68q-3 4 -5.5 9.5t-2.5 11.5q2 8 6 13t16 7q7 -1 12.5 -5t9.5 -9l44 -81l48 81q4 5 9.5 9t12.5 5q4 -1 7.5 -1.5t6.5 -2.5t5 -6t2 -10q0 -9 -5 -16l-45 -73h42q8 -1 12.5 -5.5t4.5 -11.5q0 -8 -4.5 -13t-12.5 -6h-55v-18h55v0zM673 626
l-167 167l-167 -167h87l2 -128h158v128h87z" />
    <glyph glyph-name="credit" unicode="&#xe6ca;" 
d="M860 48l-208 66q-19 -35 -55 -51l-27 -5q-3 -1 -7 -1h-5h-14q-35 3 -56 31l-60 73l-24 28q-6 8 -6 17q0 11 7.5 18.5t18.5 7.5q12 0 20 -9l83 -100q14 -17 36 -17q17 0 31 11q17 14 17 36q0 18 -11 31l-150 180q-10 11 -24 15l-226 83q-23 13 -51 13q-44 0 -75.5 -31.5
t-31.5 -75.5q0 -30 15 -55t40 -39l137 -96l157 -202q16 -15 38 -19q17 -3 40 -3h382q19 1 31.5 14t13.5 31v3q0 17 -10 29.5t-25 16.5h-1zM342 751v0q0 -43 88 -73t212 -30t212 30t88 73v0v0q0 43 -88 73t-212 30t-212 -30t-88 -73v0zM604 236l25 -30q18 -23 18 -53v0
l161 -50q121 35 214 116l-80 91q-117 -74 -300 -74h-38zM342 498v-49q108 -39 110 -41q23 -11 36 -34l82 -96q43 -5 91 -5h14q146 0 269 76l-2 149q-117 -75 -300 -75q-185 0 -300 75zM342 685v-150q1 0 25.5 -12.5t46 -20.5t58 -19t85 -17t104.5 -6h14q146 0 269 77l-2 148
q-117 -75 -300 -75q-185 0 -300 75z" />
    <glyph glyph-name="data" unicode="&#xe600;" 
d="M600 192q-29 0 -49.5 23t-20.5 52v64q0 28 20 47t50 19h420v-205h-420zM652 352q-22 0 -37 -15.5t-15 -37t15 -37t37 -15.5t37.5 15.5t15.5 37t-15.5 37t-37.5 15.5zM495 337v-70q0 -44 31 -78.5t74 -34.5h358v-132q0 -43 -35 -77.5t-78 -34.5h-736q-43 0 -74 34t-31 78
v666q0 44 31.5 78.5t73.5 34.5h338l-83 -60h-272q-24 0 -38.5 -10t-14.5 -30.5t14.5 -30.5t38.5 -10h866v-223h-358q-44 0 -74.5 -28.5t-30.5 -71.5zM106 578h-41v-81h41v81zM106 416h-41v-81h41v81zM106 254h-41v-82h41v82zM106 91h-41v-81h41v81zM284 681l412 182l79 -182
h-491zM762 801h83q8 0 17 -3.5t18 -11.5t15 -14t15 -17t12 -14h-143z" />
    <glyph glyph-name="ketixianjine" unicode="&#xe615;" 
d="M639 324q10 0 18 8t8 18.5t-8 18t-18 7.5h-104l95 98q8 8 8 18.5t-8 18.5t-18.5 8t-18.5 -8l-81 -86l-83 86q-8 8 -18.5 8t-18.5 -8t-8 -19t8 -18l95 -98h-103q-11 0 -18.5 -8t-7.5 -18t7.5 -18t18.5 -8h100v-26h-100q-11 0 -18.5 -8t-7.5 -18.5t7.5 -18.5t18.5 -8h100
v-75q0 -8 8 -13.5t18.5 -5.5t18 6t7.5 13v75h101q10 0 18 8t8 18.5t-8 18.5t-18 8h-101v26h103v0v0zM876 833h-729q-35 0 -60 -25t-25 -60v-114q0 -35 25 -60.5t60 -25.5h64v-460q0 -35 25 -60.5t60 -25.5h433q35 0 60 25.5t25 60.5v461h64q35 0 59 25t24 60v114
q0 35 -25 60t-60 25zM756 85q0 -17 -12.5 -22.5t-35.5 -5.5h-412q-12 0 -20 8t-8 20v521q0 12 8 20t20 8h433q12 0 20 -8t8 -20v-521h-1v0zM905 751v-120q0 -12 -8 -20t-19 -8h-68q0 18 -5 31q17 0 29 12.5t12 29.5t-12 29.5t-29 12.5h-589q-17 0 -29 -12.5t-12 -29.5
t12 -29.5t29 -12.5q-5 -13 -5 -31h-68q-11 0 -19 8t-8 20v120q0 12 8 20t19 8h738q12 0 20 -8t8 -20h-4v0z" />
    <glyph glyph-name="save" unicode="&#xe691;" horiz-adv-x="1039" 
d="M829 834h-622q-54 0 -93 -38.5t-39 -93.5v-622q0 -55 39 -93.5t93 -38.5h622q55 0 93.5 38.5t38.5 93.5v622q0 55 -38.5 93.5t-93.5 38.5zM277 779h483v-128q0 -6 -5 -11t-11 -5h-451q-7 0 -11.5 5t-4.5 11v128zM760 3h-483v344q0 7 4.5 11.5t11.5 4.5h451q6 0 11 -4.5
t5 -11.5v-344zM906 80q0 -32 -22.5 -54.5t-54.5 -22.5h-14v344q0 30 -21 51t-50 21h-451q-30 0 -50.5 -21t-20.5 -51v-344h-15q-31 0 -53.5 22.5t-22.5 54.5v622q0 32 22.5 54.5t53.5 22.5h15v-128q0 -29 20.5 -50t50.5 -21h451q29 0 50 21t21 50v128h14q32 0 54.5 -22.5
t22.5 -54.5v-622zM661 279h-285q-12 0 -20 -8t-8 -19.5t8 -19.5t20 -8h285q12 0 20 8t8 19.5t-8 19.5t-20 8zM661 164h-285q-12 0 -20 -8t-8 -19.5t8 -19.5t20 -8h285q12 0 20 8t8 19.5t-8 19.5t-20 8z" />
    <glyph glyph-name="wodehaoyou" unicode="&#xe6e7;" 
d="M992 70q-13 0 -22.5 9.5t-9.5 22.5q0 51 -22.5 106t-64.5 100t-93 60q-12 3 -25 6q-10 2 -17 11t-7 20q0 17 14 26q26 18 41 46.5t15 60.5q0 53 -37 90t-91 39q-13 0 -22 9.5t-9 22.5t9.5 22.5t22.5 9.5v0h2q79 -3 134 -58.5t55 -134.5q0 -66 -41 -119q88 -38 144 -131.5
t56 -185.5q0 -13 -9.5 -22.5t-22.5 -9.5zM893 1l-15 1q-13 0 -22.5 9t-9.5 22.5t9.5 23t22.5 9.5h1v0q6 -1 22 -1l19 1q19 -1 30 10q10 10 10 25v1q0 14 9.5 23t22.5 9t22.5 -9t9.5 -23q0 -43 -29 -72t-76 -28l-17 -1h-9zM236 -64h-127q-31 0 -53 9t-32.5 19.5t-16.5 27.5
t-6.5 26t-0.5 24q0 119 64 222t168 153q-67 67 -67 174q0 100 70 170.5t168.5 70.5t168.5 -70.5t70 -170.5q0 -106 -70 -174q105 -51 171 -155t65 -221q-1 -49 -29.5 -77t-79.5 -28h-463zM403.5 768q-72.5 0 -123.5 -52t-51 -125q0 -109 84 -155q17 -9 17 -28q0 -10 -7 -19
t-17 -12q-105 -30 -173.5 -125t-68.5 -210q0 -26 6.5 -34t38.5 -8h127h463q24 0 34 9.5t11 32.5q1 113 -69.5 208.5t-176.5 126.5q-10 3 -16.5 12t-6.5 19q0 19 16 28q42 23 64.5 63.5t22.5 91.5q0 73 -51 125t-123.5 52z" />
  </font>
</defs>
</svg>
